<svg width="222" height="59" viewBox="0 0 222 59" fill="none" xmlns="http://www.w3.org/2000/svg">
<path d="M93.1383 15.544V29.2674C93.1383 33.1378 93.5806 36.0724 94.4799 37.9863C95.3645 39.8719 96.706 41.3605 98.4899 42.4096C100.274 43.4587 102.544 43.9974 105.227 43.9974C107.91 43.9974 110.166 43.4587 111.935 42.4096C113.704 41.3605 115.031 39.8861 115.916 38.0147C116.8 36.1291 117.257 33.2795 117.257 29.5226V15.544H114.309V28.8563C114.309 32.4006 114.117 34.6689 113.734 35.7889C113.173 37.4334 112.127 38.7661 110.638 39.7726C109.149 40.7792 107.321 41.2896 105.198 41.2896C103.075 41.2896 101.217 40.765 99.684 39.7443C98.1361 38.7094 97.0746 37.2775 96.5291 35.5053C96.1606 34.2578 95.9837 32.0887 95.9837 28.8563V15.544H93.1383V15.544Z" fill="black"/>
<path d="M169.831 15.4162C165.202 15.4162 161.457 17.1458 158.686 20.5341C156.489 23.2136 155.383 26.3184 155.369 29.7634C155.369 33.4069 156.666 36.7385 159.246 39.6448C161.811 42.5369 165.438 43.9972 170.023 44.0113C172.116 44.0397 173.974 43.7136 175.61 43.104C177.247 42.5086 178.736 41.6154 180.048 40.4529C181.286 39.3613 182.392 37.9294 183.35 36.1856L180.903 34.938C179.827 36.6251 178.795 37.8868 177.836 38.6808C176.819 39.5314 175.581 40.2119 174.151 40.7081C172.721 41.2043 171.232 41.4595 169.728 41.4595H169.713C166.558 41.4595 163.875 40.3678 161.723 38.2129C159.585 36.0722 158.465 33.3077 158.406 29.976V29.5791L184.456 29.6216C184.352 26.0774 183.32 23.086 181.374 20.7042C178.529 17.2025 174.652 15.4304 169.875 15.4162H169.831ZM181.286 27.2966L158.656 27.254L158.804 26.7579C159.585 24.1351 160.764 22.1361 162.312 20.8177C164.421 19.003 166.971 18.0957 169.89 18.0957H169.92C171.689 18.0957 173.414 18.4643 175.02 19.1873C176.627 19.9103 177.939 20.8885 178.927 22.0652C179.915 23.2561 180.667 24.8439 181.168 26.8146L181.286 27.2966Z" fill="black"/>
<path d="M208.544 15.4732C205.522 15.4732 202.765 16.1112 200.332 17.3729C197.9 18.6347 195.968 20.4068 194.583 22.6468C193.197 24.8868 192.489 27.3536 192.489 29.9622C192.489 33.8467 193.993 37.1925 196.956 39.9003C199.919 42.6223 203.723 43.9974 208.234 43.9974C211.183 43.9974 213.851 43.4587 216.151 42.3813C218.318 41.3747 220.087 39.957 221.414 38.1707L219.07 36.7104C216.298 39.8719 212.716 41.4739 208.411 41.4739C205.993 41.4739 203.782 40.9636 201.836 39.9428C199.875 38.9221 198.327 37.476 197.207 35.633C196.086 33.79 195.526 31.791 195.526 29.707C195.526 26.4888 196.764 23.7243 199.197 21.4701C201.63 19.2301 204.726 18.0818 208.382 18.0818C212.849 18.0818 216.446 19.6838 219.085 22.8453L221.429 21.4559C220.618 20.2509 219.645 19.2301 218.525 18.4362C217.301 17.5572 215.797 16.8342 214.043 16.2955C212.288 15.7426 210.431 15.4732 208.544 15.4732Z" fill="black"/>
<path d="M130.938 43.4018H133.96V30.0045C133.96 26.4319 134.152 24.1494 134.535 23.0152C135.11 21.3707 136.186 20.0097 137.705 19.0031C139.223 17.9965 141.081 17.4862 143.248 17.4862C145.12 17.4862 146.801 17.8831 148.246 18.677L149.809 16.1819C148.039 15.232 145.828 14.75 143.233 14.75C140.491 14.75 138.177 15.2887 136.378 16.352C134.579 17.4153 133.208 18.9039 132.309 20.7752C131.41 22.6608 130.938 25.5387 130.938 29.324V43.4018Z" fill="black"/>
<path d="M82.8202 43.4018V29.6784C82.8202 25.8081 82.3632 22.8734 81.4786 20.9595C80.5941 19.074 79.2525 17.5854 77.4686 16.5363C75.6848 15.4872 73.4144 14.9485 70.7313 14.9485C68.0481 14.9485 65.7778 15.4872 64.0234 16.5363C62.2543 17.5854 60.9275 19.0598 60.0429 20.9312C59.1584 22.8167 58.7014 25.6663 58.7014 29.4232V43.4018H61.6499V30.0896C61.6499 26.5453 61.8415 24.277 62.2248 23.157C62.7851 21.5124 63.8318 20.1798 65.3208 19.1732C66.8098 18.1666 68.6379 17.6563 70.7608 17.6563C72.8837 17.6563 74.7265 18.1808 76.2745 19.2016C77.8225 20.2365 78.8839 21.6684 79.4294 23.4405C79.798 24.6881 79.9749 26.8572 79.9749 30.0896V43.4018H82.8202Z" fill="black"/>
<path d="M28.0853 30.0101C26.5167 32.2643 24.2984 34.5993 21.3932 35.0843C20.0567 35.3088 18.7758 35.1023 17.5506 34.5634C16.4554 34.0784 15.4994 33.36 14.5527 32.6505C12.8077 31.3393 10.8586 29.7766 8.52888 30.3245C6.0414 30.9082 4.55634 33.0007 3.38685 35.0843L7.29442 41.2182L7.42436 41.4158L16.6039 55.839L27.547 38.6497L29.0227 36.3326L33.2088 29.7587L30.5728 25.6095C29.8488 27.1363 29.0506 28.6181 28.0853 30.0101Z" fill="black"/>
<path d="M8.41844 27.2444C11.0451 26.7774 13.1799 28.1605 15.1569 29.6513C16.8833 30.9445 18.8232 32.4982 21.1621 32.0402C23.9188 31.5013 25.8772 29.1034 27.2694 26.9121C28.1605 25.5021 28.903 24.0203 29.5806 22.5115L23.8074 13.4229L22.3595 11.1508L16.5956 2.10713L3.17432 23.1941L2.29256 24.5861L0 28.1874L2.46892 32.0671C3.8426 29.8309 5.65252 27.7473 8.41844 27.2444Z" fill="black"/>
</svg>
